HIERARCHY
ROOT root
{
	OFFSET	0	13.1	24.9
	CHANNELS 6  Xposition Yposition Zposition Xrotation Yrotation Zrotation
	JOINT spine_1
	{
		OFFSET	0	9.99999	0
		CHANNELS 3  Xrotation Yrotation Zrotation
		JOINT spine_2
		{
			OFFSET	0	112	-10
			CHANNELS 3  Xrotation Yrotation Zrotation
			JOINT spine_3
			{
				OFFSET	0	206.5	19.3
				CHANNELS 3  Xrotation Yrotation Zrotation
				JOINT spine_4
				{
					OFFSET	0	110.4	14.6
					CHANNELS 3  Xrotation Yrotation Zrotation
					JOINT neck_1
					{
						OFFSET	0	71.8	-50.3
						CHANNELS 3  Xrotation Yrotation Zrotation
						JOINT neck_2
						{
							OFFSET	0	86.2	-25.8
							CHANNELS 3  Xrotation Yrotation Zrotation
							JOINT head_ee
							{
								OFFSET	0	179.8	-8.7
								CHANNELS 3  Xrotation Yrotation Zrotation
								End Site
								{
									OFFSET	1	0	0
								}
							}
						}
					}
					JOINT left_clavicle
					{
						OFFSET	-43.2	22.4	-70.8
						CHANNELS 3  Xrotation Yrotation Zrotation
						JOINT left_shoulder
						{
							OFFSET	-93.9	-5.79999	48.7
							CHANNELS 3  Xrotation Yrotation Zrotation
							JOINT left_elbow
							{
								OFFSET	-291.4	-30.8	15.2
								CHANNELS 3  Xrotation Yrotation Zrotation
								JOINT left_lowarm_twist
								{
									OFFSET	-110.7	-3.89999	13.6
									CHANNELS 3  Xrotation Yrotation Zrotation
									JOINT left_hand
									{
										OFFSET	-110.7	-3.89999	13.6
										CHANNELS 3  Xrotation Yrotation Zrotation
										JOINT left_ee
										{
											OFFSET	-80.8	-5.10001	12.1
											CHANNELS 3  Xrotation Yrotation Zrotation
											End Site
											{
												OFFSET	1	0	0
											}
										}
									}
								}
							}
						}
					}
					JOINT right_clavicle
					{
						OFFSET	43.2	22.4	-70.8
						CHANNELS 3  Xrotation Yrotation Zrotation
						JOINT right_shoulder
						{
							OFFSET	93.9	-5.79999	48.7
							CHANNELS 3  Xrotation Yrotation Zrotation
							JOINT right_elbow
							{
								OFFSET	291.4	-30.8	15.2
								CHANNELS 3  Xrotation Yrotation Zrotation
								JOINT right_lowarm_twist
								{
									OFFSET	110.7	-3.89999	13.6
									CHANNELS 3  Xrotation Yrotation Zrotation
									JOINT right_hand
									{
										OFFSET	110.7	-3.89999	13.6
										CHANNELS 3  Xrotation Yrotation Zrotation
										JOINT right_ee
										{
											OFFSET	80.8	-5.10001	12.1
											CHANNELS 3  Xrotation Yrotation Zrotation
											End Site
											{
												OFFSET	1	0	0
											}
										}
									}
								}
							}
						}
					}
				}
			}
		}
	}
	JOINT left_hip
	{
		OFFSET	-82.8	-127.5	0.300001
		CHANNELS 3  Xrotation Yrotation Zrotation
		JOINT left_knee
		{
			OFFSET	-28.2	-396.7	2.2
			CHANNELS 3  Xrotation Yrotation Zrotation
			JOINT left_ankle
			{
				OFFSET	-11.7	-411.3	35.4
				CHANNELS 3  Xrotation Yrotation Zrotation
				JOINT left_toes
				{
					OFFSET	0	-60	-88.6
					CHANNELS 3  Xrotation Yrotation Zrotation
					JOINT left_foot_ee
					{
						OFFSET	-22.5	-16.5	-42.2
						CHANNELS 3  Xrotation Yrotation Zrotation
						End Site
						{
							OFFSET	1	0	0
						}
					}
				}
			}
		}
	}
	JOINT right_hip
	{
		OFFSET	82.8	-127.5	0.300001
		CHANNELS 3  Xrotation Yrotation Zrotation
		JOINT right_knee
		{
			OFFSET	28.2	-396.7	2.2
			CHANNELS 3  Xrotation Yrotation Zrotation
			JOINT right_ankle
			{
				OFFSET	11.7	-411.3	35.4
				CHANNELS 3  Xrotation Yrotation Zrotation
				JOINT right_toes
				{
					OFFSET	0	-60	-88.6
					CHANNELS 3  Xrotation Yrotation Zrotation
					JOINT right_foot_ee
					{
						OFFSET	22.5	-16.5	-42.2
						CHANNELS 3  Xrotation Yrotation Zrotation
						End Site
						{
							OFFSET	1	0	0
						}
					}
				}
			}
		}
	}
}
MOTION
Frames: 13
Frame Time: 0.02
2856.04596874 707.587 -1679.45728847 2.32940154586 39.9794717002 -5.17122677832 0.241808 0.674636 3.49235 0.248479 0.451184 3.52814 0.279586 -0.283194 3.54555 0.262155 0.279952 3.54581 -3.7746 21.5449 0.951096 -3.19753 38.7835 4.2354 -0.0 0.0 -0.0 0.73278 7.81274 2.22579 -29.5209 -34.9855 35.9691 0.712949 -19.4519 0.122201 -32.4575 -2.18704 3.46803 -5.38128 13.9925 -29.2717 -0.0 0.0 -0.0 9.90985 19.7369 -19.2203 -26.7189 29.2897 -62.6019 0.996211 26.2655 -0.232432 -31.817 2.12587 -3.4132 -0.24502 -1.59928 0.956167 0.0 0.0 0.0 -0.926533 14.8481 3.72423 -2.15946 0.0828713 0.321024 3.49607 11.1813 -0.507719 7.22488 -0.0 -0.0 -0.0 0.0 -0.0 15.9281 38.5253 -4.56631 -56.6214 1.84641 -8.14281 39.3129 -15.3003 4.87501 -40.325 0.0 0.0 0.0 0.0 0.0 
2840.18779215 707.932 -1664.68823329 2.90798043923 42.2375706872 -6.14820079899 0.0216689 0.580217 3.5458 0.0285931 0.353561 3.57548 0.0543426 -0.40272 3.57029 0.0365956 0.165819 3.58907 -3.70057 21.5673 0.98768 -3.11039 38.78 4.24938 -0.0 0.0 -0.0 0.873835 7.80827 2.47528 -28.1839 -35.0335 33.2264 0.765192 -20.7593 0.14016 -32.6917 -2.20955 3.48792 -6.02656 16.1345 -32.3884 -0.0 0.0 -0.0 9.626 19.6617 -18.5919 -27.5829 28.9482 -62.2813 0.940597 24.9825 -0.208379 -31.3899 2.08544 -3.37626 -0.272154 -2.31612 0.831937 0.0 0.0 0.0 -1.88047 15.2859 4.81607 -1.93863 0.0749537 0.288058 2.48821 10.2312 -0.362067 7.37024 -0.0 -0.0 -0.0 0.0 -0.0 17.6315 38.6676 -4.55641 -53.9443 1.58277 -7.82542 38.19 -15.9406 4.7809 -40.1123 0.0 0.0 0.0 0.0 0.0 
2840.62309669 707.932 -1651.56329859 3.01698482097 44.4683234517 -6.30695561943 0.0216689 0.580217 3.5458 0.0285931 0.353561 3.57548 0.0543426 -0.40272 3.57029 0.0365956 0.165819 3.58907 -3.70057 21.5673 0.98768 -3.11039 38.78 4.24938 -0.0 0.0 -0.0 0.873835 7.80827 2.47528 -28.1839 -35.0335 33.2264 0.765192 -20.7593 0.14016 -32.6917 -2.20955 3.48792 -6.02656 16.1345 -32.3884 -0.0 0.0 -0.0 9.626 19.6617 -18.5919 -27.5829 28.9482 -62.2813 0.940597 24.9825 -0.208379 -31.3899 2.08544 -3.37626 -0.272154 -2.31612 0.831937 0.0 0.0 0.0 -1.88047 15.2859 4.81607 -1.93863 0.0749537 0.288058 2.48821 10.2312 -0.362067 7.37024 -0.0 -0.0 -0.0 0.0 -0.0 17.6315 38.6676 -4.55641 -53.9443 1.58277 -7.82542 38.19 -15.9406 4.7809 -40.1123 0.0 0.0 0.0 0.0 0.0 
2834.69072076 708.826 -1628.16996748 2.066249351 48.3153151161 -6.41015431177 -0.0801504 0.397149 3.59828 -0.0729638 0.167529 3.61623 -0.058734 -0.600585 3.57 -0.0765154 -0.0296171 3.61998 -3.62486 21.7102 0.955757 -3.01046 39.0503 4.20762 -0.0 0.0 -0.0 1.02875 6.53732 2.62793 -26.4453 -35.8015 28.9933 0.802486 -21.6791 0.153659 -32.6286 -2.20348 3.48257 -6.59194 18.0503 -35.0332 -0.0 0.0 -0.0 9.37792 19.6207 -18.0424 -28.3206 28.6457 -61.9187 0.90015 24.0322 -0.191601 -30.8098 2.03095 -3.32559 -0.291141 -2.81935 0.744076 0.0 0.0 0.0 -5.75129 16.0807 9.99636 -1.99803 0.0770959 0.296921 1.78587 9.57887 -0.260258 7.50959 -0.0 -0.0 -0.0 0.0 -0.0 22.6844 38.2526 -7.52995 -50.9056 1.30195 -7.45089 37.4024 -16.3878 4.71328 -39.9633 0.0 0.0 0.0 0.0 0.0 
2801.07555477 712.616 -1602.32612391 2.31752878204 49.5210904291 -8.29868980278 -0.601541 0.550709 3.93218 -0.59299 0.299578 3.9592 -0.566499 -0.578776 3.92816 -0.588023 0.0483585 3.97021 -4.41155 22.3849 2.07638 -3.9332 39.6574 5.75481 -0.0 0.0 -0.0 1.2319 5.98653 2.94263 -22.6976 -37.0374 20.6804 0.829462 -22.3372 0.163768 -32.4682 -2.18807 3.46895 -7.97777 22.2038 -41.8611 -0.0 0.0 -0.0 9.0025 19.3527 -17.2283 -30.4353 27.7927 -62.1954 0.689511 18.8583 -0.11451 -29.3217 1.89357 -3.19318 -0.324163 -4.85918 0.0968813 0.0 0.0 0.0 -12.1598 16.8729 16.1958 0.468038 -0.0195556 -0.0691612 1.65337 9.5301 -0.241025 7.41115 -0.0 -0.0 -0.0 0.0 -0.0 28.4628 37.994 -9.81857 -44.9724 0.81302 -6.67988 38.4056 -16.6601 4.8129 -38.8632 0.0 0.0 0.0 0.0 0.0 
2787.38430121 709.505 -1593.95698515 3.3021608646 50.7932378863 -9.19699160149 -0.784136 0.631377 4.02707 -0.775193 0.37406 4.05901 -0.742027 -0.54035 4.04027 -0.764786 0.103968 4.07486 -4.48085 22.6048 2.41804 -4.01097 39.8309 6.16423 -0.0 0.0 -0.0 1.19968 7.37088 3.01254 -21.4072 -36.8516 18.6985 0.791233 -21.4028 0.149527 -32.5093 -2.19201 3.47244 -8.64468 24.1669 -45.1421 -0.0 0.0 -0.0 8.98623 19.161 -17.2059 -30.8392 27.4584 -62.5409 0.573047 15.8478 -0.0797612 -28.6738 1.83485 -3.13442 -0.258599 -5.95031 -0.793171 0.0 0.0 0.0 -14.5856 16.663 17.4156 1.36487 -0.0586055 -0.201238 2.0624 9.94971 -0.300392 7.42909 -0.0 -0.0 -0.0 0.0 -0.0 29.3034 38.8046 -8.43946 -39.9637 0.464457 -5.9932 39.6844 -16.9751 4.93687 -38.4036 0.0 0.0 0.0 0.0 0.0 
2772.63598392 705.373 -1586.84467303 3.75959810726 52.03182414 -10.8363123641 -0.889729 0.639096 4.28136 -0.879609 0.365627 4.31327 -0.844345 -0.613095 4.28515 -0.869955 0.0707018 4.32813 -4.5073 22.7449 2.64062 -4.0392 39.9338 6.4231 -0.0 0.0 -0.0 1.43511 8.12804 3.49759 -20.1798 -37.0283 17.6252 0.764834 -20.7505 0.140034 -32.5414 -2.19509 3.47517 -9.13155 25.6262 -47.4834 -0.0 0.0 -0.0 8.97908 18.9436 -17.2052 -31.0837 27.1556 -62.8526 0.49166 13.6883 -0.0590116 -28.215 1.79366 -3.09241 -0.205471 -6.74943 -1.4748 0.0 0.0 0.0 -17.1154 16.2624 18.7775 1.99161 -0.0871223 -0.293175 2.36985 10.2383 -0.344952 7.43814 -0.0 -0.0 -0.0 0.0 -0.0 31.4566 38.976 -9.0139 -35.3186 0.196108 -5.33189 40.5725 -17.1806 5.02106 -38.0692 0.0 0.0 0.0 0.0 0.0 
2772.63370998 705.373 -1586.85582723 3.75946532489 52.0302471452 -10.8361439321 -0.889729 0.639096 4.28136 -0.879609 0.365627 4.31327 -0.844345 -0.613095 4.28515 -0.869955 0.0707018 4.32813 -4.5073 22.7449 2.64062 -4.0392 39.9338 6.4231 -0.0 0.0 -0.0 1.43511 8.12804 3.49759 -20.1798 -37.0283 17.6252 0.764834 -20.7505 0.140034 -32.5414 -2.19509 3.47517 -9.13155 25.6262 -47.4834 -0.0 0.0 -0.0 8.97908 18.9436 -17.2052 -31.0837 27.1556 -62.8526 0.49166 13.6883 -0.0590116 -28.215 1.79366 -3.09241 -0.205471 -6.74943 -1.4748 0.0 0.0 0.0 -17.1154 16.2624 18.7775 1.99161 -0.0871223 -0.293175 2.36985 10.2383 -0.344952 7.43814 -0.0 -0.0 -0.0 0.0 -0.0 31.4566 38.976 -9.0139 -35.3186 0.196108 -5.33189 40.5725 -17.1806 5.02106 -38.0692 0.0 0.0 0.0 0.0 0.0 
2761.03164048 703.21 -1583.27357341 3.6864024364 53.2188987882 -11.2621623251 -1.02436 0.637324 4.4083 -1.01363 0.355805 4.43983 -0.977518 -0.661477 4.40475 -1.00458 0.041755 4.45384 -3.8168 22.5405 1.5544 -3.20289 40.1855 5.01349 -0.0 0.0 -0.0 2.53778 9.16584 5.51024 -16.4829 -37.3868 14.0002 0.695095 -19.0002 0.116321 -33.1159 -2.25055 3.5237 -9.65513 27.2307 -49.9177 -0.0 0.0 -0.0 8.96757 18.7989 -17.1897 -31.1784 26.4882 -63.2893 0.431281 12.0598 -0.0455574 -27.9555 1.77053 -3.06852 -0.0688958 -7.31981 -2.6007 0.0 0.0 0.0 -17.6865 17.0443 20.2082 2.9181 -0.13112 -0.428512 2.42593 10.7715 -0.35319 7.41339 -0.0 -0.0 -0.0 0.0 -0.0 31.6321 38.0979 -10.8018 -31.0155 -0.00383099 -4.70209 41.3645 -16.7562 5.08332 -37.166 0.0 0.0 0.0 0.0 0.0 
2745.34013264 701.441 -1585.56377166 4.01471998263 53.4640594081 -11.4920170407 -1.14323 0.642605 4.53644 -1.13185 0.352945 4.56805 -1.09435 -0.70272 4.52754 -1.12294 0.0203586 4.58159 -3.35582 22.2438 0.877727 -2.64991 40.0303 4.094 -0.0 0.0 -0.0 3.85934 9.97321 7.85003 -12.9378 -40.0396 10.5472 0.648228 -17.8026 0.101526 -33.5187 -2.28972 3.55739 -10.3438 29.6098 -52.5258 -0.0 0.0 -0.0 8.95962 18.6961 -17.1792 -31.079 25.3775 -63.9108 0.375816 10.5461 -0.0346853 -27.7806 1.75499 -3.05234 0.145308 -7.8356 -4.20421 0.0 0.0 0.0 -18.9393 17.6128 20.1323 3.56384 -0.16308 -0.522417 2.66875 11.5791 -0.388571 7.39809 -0.0 -0.0 -0.0 0.0 -0.0 32.0903 37.6608 -11.0113 -26.0201 -0.175815 -3.95498 41.878 -16.3215 5.12002 -36.5324 0.0 0.0 0.0 0.0 0.0 
2727.89843797 698.109 -1588.66968111 4.4672605054 53.3388852111 -11.8035423741 -1.23031 0.634415 4.54089 -1.21891 0.34449 4.57197 -1.1818 -0.718803 4.52832 -1.2104 0.00460058 4.5849 -3.03556 22.0133 0.386133 -2.26481 39.899 3.4282 -0.0 0.0 -0.0 5.08266 10.3042 9.98734 -10.0657 -42.5514 8.72437 0.627429 -17.2659 0.0952595 -33.7953 -2.31675 3.58036 -10.8616 31.3483 -54.4095 -0.0 0.0 -0.0 8.99806 18.618 -17.2695 -30.9905 24.5647 -64.198 0.339062 9.53469 -0.0282774 -27.6268 1.74137 -3.03809 0.294891 -8.20501 -5.32511 0.0 0.0 0.0 -20.6567 17.8064 21.0291 3.73265 -0.171609 -0.546909 2.85242 12.1239 -0.415358 7.39585 -0.0 -0.0 -0.0 0.0 -0.0 32.4614 37.3321 -11.1953 -20.9141 -0.283653 -3.1791 42.1555 -16.028 5.1386 -36.0656 0.0 0.0 0.0 0.0 0.0 
2694.30854031 696.724 -1587.78175574 3.27304832561 52.9802915995 -11.0470175133 -1.30124 0.678795 4.61863 -1.28946 0.38385 4.65236 -1.24801 -0.704317 4.61481 -1.27772 0.0325206 4.66802 -0.787082 21.277 -1.86005 0.48355 39.7593 0.0954174 -0.0 0.0 -0.0 7.1389 10.7976 13.592 -5.95314 -46.1931 7.52208 0.716347 -19.5376 0.123335 -34.1245 -2.34907 3.60755 -11.5966 33.2925 -58.1448 -0.0 0.0 -0.0 9.0734 18.7178 -17.4296 -30.5762 23.6946 -64.4833 0.330158 9.28871 -0.0268211 -26.9959 1.6859 -2.97923 0.481961 -8.65756 -6.7207 0.0 0.0 0.0 -21.8675 18.7882 22.503 4.06306 -0.188514 -0.594772 3.2782 13.5649 -0.477782 7.20053 -0.0 -0.0 -0.0 0.0 -0.0 29.9989 37.3947 -9.80022 -5.04911 -0.174709 -0.754944 41.0974 -15.7188 5.04151 -35.3662 0.0 0.0 0.0 0.0 0.0 
2676.7114167 691.484 -1587.05121608 1.99991057279 53.5380487087 -10.3144040678 -1.31774 0.697253 4.76678 -1.30518 0.392875 4.80138 -1.26128 -0.731247 4.76169 -1.2929 0.0290438 4.8173 -0.142553 21.0309 -2.48989 1.27552 39.6644 -0.857046 -0.0 0.0 -0.0 7.86538 10.9657 14.8747 -4.47944 -47.3805 7.54776 0.743598 -20.2216 0.132601 -34.2204 -2.35851 3.61543 -11.78 33.6909 -59.3373 -0.0 0.0 -0.0 9.11647 18.8294 -17.5174 -30.4494 23.4418 -64.4272 0.328693 9.24823 -0.0265854 -26.7701 1.6662 -2.95802 0.549129 -8.78203 -7.2064 0.0 0.0 0.0 -22.414 18.9879 23.0789 4.01638 -0.186109 -0.588015 3.38934 13.8892 -0.494101 7.12553 -0.0 -0.0 -0.0 0.0 -0.0 30.0544 37.2761 -10.2741 -0.013753 -0.000566309 -0.00203454 40.8145 -15.6231 5.01501 -35.1436 0.0 0.0 0.0 0.0 0.0 
